<?xml version="1.0" standalone="no"?>
<!DOCTYPE svg PUBLIC "-//W3C//DTD SVG 20010904//EN"
 "http://www.w3.org/TR/2001/REC-SVG-20010904/DTD/svg10.dtd">
<svg version="1.0" xmlns="http://www.w3.org/2000/svg"
 width="78.000000pt" height="78.000000pt" viewBox="0 0 78.000000 78.000000"
 preserveAspectRatio="xMidYMid meet">
<metadata>
Created by potrace 1.14, written by Peter Selinger 2001-2017
</metadata>
<g transform="translate(0.000000,78.000000) scale(0.100000,-0.100000)"
fill="#000000" stroke="none">
<path d="M54 708 c39 -84 106 -226 198 -418 35 -74 79 -168 98 -208 18 -39 36
-72 40 -72 10 0 24 50 21 70 -3 13 -167 366 -262 560 -20 41 -35 77 -33 79 3
3 502 5 541 2 7 -1 3 -24 -13 -68 -26 -70 -24 -71 17 -13 14 19 42 59 63 88
l38 52 -371 0 -370 0 33 -72z"/>
<path d="M435 518 c2 -21 7 -23 66 -24 104 -3 110 -4 104 -14 -10 -16 42 -11
59 6 9 8 16 24 16 35 0 18 -8 19 -123 19 -122 0 -124 0 -122 -22z"/>
<path d="M548 402 c-39 -36 -33 -62 14 -62 46 0 78 -24 78 -59 0 -41 -32 -65
-86 -64 -48 2 -54 -5 -26 -30 23 -21 64 -22 107 -2 39 19 59 54 58 101 -1 41
-25 71 -72 91 -32 14 -32 15 -15 34 16 18 16 19 -4 19 -12 0 -36 -13 -54 -28z"/>
<path d="M431 231 c-9 -16 -7 -23 11 -35 31 -22 36 -20 31 9 -8 37 -29 51 -42
26z"/>
</g>
</svg>
