<svg version="1" xmlns="http://www.w3.org/2000/svg" width="346.667" height="346.667" viewBox="0 0 260.000000 260.000000"><path d="M109.4 6.4c-27 5.1-47.3 15.6-66.2 34C9.7 73.1-2.3 121 11.5 166.7c9.3 30.6 33.5 58.8 63.3 73.7 17 8.5 34.9 12.6 55.2 12.6 33.2 0 61.8-11.4 85.4-34 25.4-24.3 38.6-55 38.6-90 0-51.5-30.9-96.9-79-115.8-13.4-5.3-24.7-7.4-42-7.8-11.1-.2-18.8.1-23.6 1zm8.4 60.8c-.3 2.9-.7 3.3-7.3 5.4-3.8 1.2-7.5 3-8.2 4-1 1.4-1.3 11.4-1.3 45.8 0 24.1.2 43.7.4 43.5.2-.2 13-21.2 28.5-46.7C155.6 76.9 158 72.5 158 68.5V64h44v3.3c0 3.1-.2 3.3-6.6 5.1-3.6 1-7.2 2.5-8 3.3-1.2 1.2-1.4 9.9-1.4 54.6 0 29.3.4 53.8.8 54.5.5.6 3.9 2.3 7.8 3.5 6.4 2.2 6.9 2.6 7.2 5.5l.3 3.2h-61.2l.3-3.2c.3-3 .7-3.3 7.6-5.6 4.2-1.4 7.6-3.2 8.2-4.2.7-1.2.9-17.8.8-45.4l-.3-43.4-28 46.1c-24.9 41.1-28 46.7-28.3 50.9l-.3 4.8h-44l.3-3.2c.3-2.9.8-3.3 7.2-5.5 3.9-1.2 7.3-2.9 7.8-3.5.4-.7.8-25.2.8-54.5 0-44.7-.2-53.4-1.4-54.6-.8-.8-4.4-2.3-8-3.3-6.4-1.8-6.6-2-6.6-5.1V64h61.1l-.3 3.2z"/></svg>